<mxfile host="app.diagrams.net" modified="2024-04-25T11:20:20.578Z" agent="Mozilla/5.0 (X11; Linux x86_64; rv:125.0) Gecko/20100101 Firefox/125.0" etag="-sHu95ihfhpg3RQJOxNz" version="22.1.18" type="github">
  <diagram name="Page-1" id="c7558073-3199-34d8-9f00-42111426c3f3">
    <mxGraphModel dx="2074" dy="1095" grid="1" gridSize="10" guides="1" tooltips="1" connect="1" arrows="1" fold="1" page="1" pageScale="1" pageWidth="827" pageHeight="1169" background="none" math="0" shadow="0">
      <root>
        <mxCell id="0" />
        <mxCell id="1" parent="0" />
        <mxCell id="tK-wB-7DHDkloK3HSNFe-99" value="Input PDF ger felaktig output" style="ellipse;whiteSpace=wrap;html=1;" vertex="1" parent="1">
          <mxGeometry x="10" y="110" width="170" height="80" as="geometry" />
        </mxCell>
        <mxCell id="tK-wB-7DHDkloK3HSNFe-135" style="edgeStyle=orthogonalEdgeStyle;rounded=0;orthogonalLoop=1;jettySize=auto;html=1;dashed=1;" edge="1" parent="1" source="tK-wB-7DHDkloK3HSNFe-100" target="tK-wB-7DHDkloK3HSNFe-113">
          <mxGeometry relative="1" as="geometry" />
        </mxCell>
        <mxCell id="tK-wB-7DHDkloK3HSNFe-100" value="Skicka PDF.er til träningsansvarig" style="rounded=0;whiteSpace=wrap;html=1;" vertex="1" parent="1">
          <mxGeometry x="35" y="230" width="120" height="60" as="geometry" />
        </mxCell>
        <mxCell id="tK-wB-7DHDkloK3HSNFe-101" value="Vänta på ny träningsdata att rätta" style="rounded=0;whiteSpace=wrap;html=1;" vertex="1" parent="1">
          <mxGeometry x="35" y="330" width="120" height="60" as="geometry" />
        </mxCell>
        <mxCell id="tK-wB-7DHDkloK3HSNFe-102" value="Rätta träningsdata" style="rounded=0;whiteSpace=wrap;html=1;" vertex="1" parent="1">
          <mxGeometry x="35" y="430" width="120" height="60" as="geometry" />
        </mxCell>
        <mxCell id="tK-wB-7DHDkloK3HSNFe-139" style="edgeStyle=orthogonalEdgeStyle;rounded=0;orthogonalLoop=1;jettySize=auto;html=1;entryX=0;entryY=0.5;entryDx=0;entryDy=0;dashed=1;" edge="1" parent="1" source="tK-wB-7DHDkloK3HSNFe-103" target="tK-wB-7DHDkloK3HSNFe-118">
          <mxGeometry relative="1" as="geometry" />
        </mxCell>
        <mxCell id="tK-wB-7DHDkloK3HSNFe-103" value="Skicka rättad träningsdata till träningsansvarig" style="rounded=0;whiteSpace=wrap;html=1;" vertex="1" parent="1">
          <mxGeometry x="35" y="530" width="120" height="60" as="geometry" />
        </mxCell>
        <mxCell id="tK-wB-7DHDkloK3HSNFe-104" value="Vänta på att modeller har tränats" style="rounded=0;whiteSpace=wrap;html=1;" vertex="1" parent="1">
          <mxGeometry x="35" y="630" width="120" height="60" as="geometry" />
        </mxCell>
        <mxCell id="tK-wB-7DHDkloK3HSNFe-106" value="Processa PDF:er med nya modeller" style="ellipse;whiteSpace=wrap;html=1;" vertex="1" parent="1">
          <mxGeometry x="10" y="730" width="170" height="80" as="geometry" />
        </mxCell>
        <mxCell id="tK-wB-7DHDkloK3HSNFe-107" value="" style="endArrow=classic;html=1;rounded=0;exitX=0.5;exitY=1;exitDx=0;exitDy=0;entryX=0.5;entryY=0;entryDx=0;entryDy=0;" edge="1" parent="1" source="tK-wB-7DHDkloK3HSNFe-99" target="tK-wB-7DHDkloK3HSNFe-100">
          <mxGeometry width="50" height="50" relative="1" as="geometry">
            <mxPoint x="370" y="660" as="sourcePoint" />
            <mxPoint x="420" y="610" as="targetPoint" />
          </mxGeometry>
        </mxCell>
        <mxCell id="tK-wB-7DHDkloK3HSNFe-108" value="" style="endArrow=classic;html=1;rounded=0;exitX=0.5;exitY=1;exitDx=0;exitDy=0;entryX=0.5;entryY=0;entryDx=0;entryDy=0;" edge="1" parent="1" source="tK-wB-7DHDkloK3HSNFe-100" target="tK-wB-7DHDkloK3HSNFe-101">
          <mxGeometry width="50" height="50" relative="1" as="geometry">
            <mxPoint x="370" y="660" as="sourcePoint" />
            <mxPoint x="420" y="610" as="targetPoint" />
          </mxGeometry>
        </mxCell>
        <mxCell id="tK-wB-7DHDkloK3HSNFe-109" value="" style="endArrow=classic;html=1;rounded=0;exitX=0.5;exitY=1;exitDx=0;exitDy=0;entryX=0.5;entryY=0;entryDx=0;entryDy=0;" edge="1" parent="1" source="tK-wB-7DHDkloK3HSNFe-101" target="tK-wB-7DHDkloK3HSNFe-102">
          <mxGeometry width="50" height="50" relative="1" as="geometry">
            <mxPoint x="370" y="660" as="sourcePoint" />
            <mxPoint x="420" y="610" as="targetPoint" />
          </mxGeometry>
        </mxCell>
        <mxCell id="tK-wB-7DHDkloK3HSNFe-110" value="" style="endArrow=classic;html=1;rounded=0;exitX=0.5;exitY=1;exitDx=0;exitDy=0;" edge="1" parent="1" source="tK-wB-7DHDkloK3HSNFe-102" target="tK-wB-7DHDkloK3HSNFe-103">
          <mxGeometry width="50" height="50" relative="1" as="geometry">
            <mxPoint x="370" y="660" as="sourcePoint" />
            <mxPoint x="420" y="610" as="targetPoint" />
          </mxGeometry>
        </mxCell>
        <mxCell id="tK-wB-7DHDkloK3HSNFe-111" value="" style="endArrow=classic;html=1;rounded=0;exitX=0.5;exitY=1;exitDx=0;exitDy=0;entryX=0.5;entryY=0;entryDx=0;entryDy=0;" edge="1" parent="1" source="tK-wB-7DHDkloK3HSNFe-103" target="tK-wB-7DHDkloK3HSNFe-104">
          <mxGeometry width="50" height="50" relative="1" as="geometry">
            <mxPoint x="370" y="660" as="sourcePoint" />
            <mxPoint x="420" y="610" as="targetPoint" />
          </mxGeometry>
        </mxCell>
        <mxCell id="tK-wB-7DHDkloK3HSNFe-112" value="" style="endArrow=classic;html=1;rounded=0;exitX=0.5;exitY=1;exitDx=0;exitDy=0;entryX=0.5;entryY=0;entryDx=0;entryDy=0;" edge="1" parent="1" source="tK-wB-7DHDkloK3HSNFe-104" target="tK-wB-7DHDkloK3HSNFe-106">
          <mxGeometry width="50" height="50" relative="1" as="geometry">
            <mxPoint x="370" y="660" as="sourcePoint" />
            <mxPoint x="420" y="610" as="targetPoint" />
          </mxGeometry>
        </mxCell>
        <mxCell id="tK-wB-7DHDkloK3HSNFe-136" style="edgeStyle=orthogonalEdgeStyle;rounded=0;orthogonalLoop=1;jettySize=auto;html=1;entryX=0;entryY=0.5;entryDx=0;entryDy=0;dashed=1;" edge="1" parent="1" source="tK-wB-7DHDkloK3HSNFe-113" target="tK-wB-7DHDkloK3HSNFe-114">
          <mxGeometry relative="1" as="geometry" />
        </mxCell>
        <mxCell id="tK-wB-7DHDkloK3HSNFe-113" value="PDF:er" style="shape=document;whiteSpace=wrap;html=1;boundedLbl=1;" vertex="1" parent="1">
          <mxGeometry x="210" y="220" width="120" height="80" as="geometry" />
        </mxCell>
        <mxCell id="tK-wB-7DHDkloK3HSNFe-126" style="edgeStyle=orthogonalEdgeStyle;rounded=0;orthogonalLoop=1;jettySize=auto;html=1;" edge="1" parent="1" source="tK-wB-7DHDkloK3HSNFe-114" target="tK-wB-7DHDkloK3HSNFe-115">
          <mxGeometry relative="1" as="geometry" />
        </mxCell>
        <mxCell id="tK-wB-7DHDkloK3HSNFe-114" value="PDF:er kommer in" style="ellipse;whiteSpace=wrap;html=1;" vertex="1" parent="1">
          <mxGeometry x="360" y="220" width="180" height="80" as="geometry" />
        </mxCell>
        <mxCell id="tK-wB-7DHDkloK3HSNFe-129" style="edgeStyle=orthogonalEdgeStyle;rounded=0;orthogonalLoop=1;jettySize=auto;html=1;" edge="1" parent="1" source="tK-wB-7DHDkloK3HSNFe-115" target="tK-wB-7DHDkloK3HSNFe-128">
          <mxGeometry relative="1" as="geometry" />
        </mxCell>
        <mxCell id="tK-wB-7DHDkloK3HSNFe-137" style="edgeStyle=orthogonalEdgeStyle;rounded=0;orthogonalLoop=1;jettySize=auto;html=1;dashed=1;" edge="1" parent="1" source="tK-wB-7DHDkloK3HSNFe-115" target="tK-wB-7DHDkloK3HSNFe-117">
          <mxGeometry relative="1" as="geometry" />
        </mxCell>
        <mxCell id="tK-wB-7DHDkloK3HSNFe-115" value="Generera träningsdata" style="rounded=0;whiteSpace=wrap;html=1;" vertex="1" parent="1">
          <mxGeometry x="390" y="330" width="120" height="60" as="geometry" />
        </mxCell>
        <mxCell id="tK-wB-7DHDkloK3HSNFe-138" style="edgeStyle=orthogonalEdgeStyle;rounded=0;orthogonalLoop=1;jettySize=auto;html=1;entryX=1;entryY=0.5;entryDx=0;entryDy=0;dashed=1;" edge="1" parent="1" source="tK-wB-7DHDkloK3HSNFe-117" target="tK-wB-7DHDkloK3HSNFe-101">
          <mxGeometry relative="1" as="geometry" />
        </mxCell>
        <mxCell id="tK-wB-7DHDkloK3HSNFe-117" value="Träningsdata" style="shape=document;whiteSpace=wrap;html=1;boundedLbl=1;" vertex="1" parent="1">
          <mxGeometry x="210" y="320" width="120" height="80" as="geometry" />
        </mxCell>
        <mxCell id="tK-wB-7DHDkloK3HSNFe-140" style="edgeStyle=orthogonalEdgeStyle;rounded=0;orthogonalLoop=1;jettySize=auto;html=1;entryX=0;entryY=0.5;entryDx=0;entryDy=0;dashed=1;" edge="1" parent="1" source="tK-wB-7DHDkloK3HSNFe-118" target="tK-wB-7DHDkloK3HSNFe-128">
          <mxGeometry relative="1" as="geometry" />
        </mxCell>
        <mxCell id="tK-wB-7DHDkloK3HSNFe-118" value="Rättad träningsdata" style="shape=document;whiteSpace=wrap;html=1;boundedLbl=1;" vertex="1" parent="1">
          <mxGeometry x="210" y="520" width="120" height="80" as="geometry" />
        </mxCell>
        <mxCell id="tK-wB-7DHDkloK3HSNFe-131" style="edgeStyle=orthogonalEdgeStyle;rounded=0;orthogonalLoop=1;jettySize=auto;html=1;" edge="1" parent="1" source="tK-wB-7DHDkloK3HSNFe-119" target="tK-wB-7DHDkloK3HSNFe-121">
          <mxGeometry relative="1" as="geometry" />
        </mxCell>
        <mxCell id="tK-wB-7DHDkloK3HSNFe-119" value="Träna modeller" style="rounded=0;whiteSpace=wrap;html=1;" vertex="1" parent="1">
          <mxGeometry x="390" y="650" width="120" height="60" as="geometry" />
        </mxCell>
        <mxCell id="tK-wB-7DHDkloK3HSNFe-121" value="Deployment av nya modeller" style="ellipse;whiteSpace=wrap;html=1;" vertex="1" parent="1">
          <mxGeometry x="365" y="730" width="170" height="80" as="geometry" />
        </mxCell>
        <mxCell id="tK-wB-7DHDkloK3HSNFe-130" style="edgeStyle=orthogonalEdgeStyle;rounded=0;orthogonalLoop=1;jettySize=auto;html=1;" edge="1" parent="1" source="tK-wB-7DHDkloK3HSNFe-128" target="tK-wB-7DHDkloK3HSNFe-119">
          <mxGeometry relative="1" as="geometry" />
        </mxCell>
        <mxCell id="tK-wB-7DHDkloK3HSNFe-128" value="Vänta på rättad träningsdata" style="rounded=0;whiteSpace=wrap;html=1;" vertex="1" parent="1">
          <mxGeometry x="390" y="530" width="120" height="60" as="geometry" />
        </mxCell>
        <mxCell id="tK-wB-7DHDkloK3HSNFe-142" value="Datainsamlare" style="shape=umlActor;verticalLabelPosition=bottom;verticalAlign=top;html=1;outlineConnect=0;" vertex="1" parent="1">
          <mxGeometry x="80" y="20" width="30" height="60" as="geometry" />
        </mxCell>
        <mxCell id="tK-wB-7DHDkloK3HSNFe-145" value="Träningsansvarig&lt;br&gt;" style="shape=umlActor;verticalLabelPosition=bottom;verticalAlign=top;html=1;outlineConnect=0;" vertex="1" parent="1">
          <mxGeometry x="435" y="130" width="30" height="60" as="geometry" />
        </mxCell>
        <mxCell id="tK-wB-7DHDkloK3HSNFe-156" value="Input PDF ger felaktig output" style="ellipse;whiteSpace=wrap;html=1;" vertex="1" parent="1">
          <mxGeometry x="640" y="110" width="170" height="80" as="geometry" />
        </mxCell>
        <mxCell id="tK-wB-7DHDkloK3HSNFe-157" value="Ladda upp PDF:er" style="rounded=0;whiteSpace=wrap;html=1;" vertex="1" parent="1">
          <mxGeometry x="665" y="230" width="120" height="60" as="geometry" />
        </mxCell>
        <mxCell id="tK-wB-7DHDkloK3HSNFe-158" value="Ladda ner träningsdata att rätta" style="rounded=0;whiteSpace=wrap;html=1;" vertex="1" parent="1">
          <mxGeometry x="665" y="330" width="120" height="60" as="geometry" />
        </mxCell>
        <mxCell id="tK-wB-7DHDkloK3HSNFe-159" value="Rätta träningsdata" style="rounded=0;whiteSpace=wrap;html=1;" vertex="1" parent="1">
          <mxGeometry x="665" y="430" width="120" height="60" as="geometry" />
        </mxCell>
        <mxCell id="tK-wB-7DHDkloK3HSNFe-160" value="Ladda upp rättad träningsdata" style="rounded=0;whiteSpace=wrap;html=1;" vertex="1" parent="1">
          <mxGeometry x="665" y="530" width="120" height="60" as="geometry" />
        </mxCell>
        <mxCell id="tK-wB-7DHDkloK3HSNFe-161" value="Kör träning av modeller" style="rounded=0;whiteSpace=wrap;html=1;" vertex="1" parent="1">
          <mxGeometry x="665" y="630" width="120" height="60" as="geometry" />
        </mxCell>
        <mxCell id="tK-wB-7DHDkloK3HSNFe-162" value="Processa PDF:er med nya modeller" style="ellipse;whiteSpace=wrap;html=1;" vertex="1" parent="1">
          <mxGeometry x="640" y="730" width="170" height="80" as="geometry" />
        </mxCell>
        <mxCell id="tK-wB-7DHDkloK3HSNFe-163" value="" style="endArrow=classic;html=1;rounded=0;exitX=0.5;exitY=1;exitDx=0;exitDy=0;entryX=0.5;entryY=0;entryDx=0;entryDy=0;" edge="1" parent="1" source="tK-wB-7DHDkloK3HSNFe-156" target="tK-wB-7DHDkloK3HSNFe-157">
          <mxGeometry width="50" height="50" relative="1" as="geometry">
            <mxPoint x="1000" y="660" as="sourcePoint" />
            <mxPoint x="1050" y="610" as="targetPoint" />
          </mxGeometry>
        </mxCell>
        <mxCell id="tK-wB-7DHDkloK3HSNFe-164" value="" style="endArrow=classic;html=1;rounded=0;exitX=0.5;exitY=1;exitDx=0;exitDy=0;entryX=0.5;entryY=0;entryDx=0;entryDy=0;" edge="1" parent="1" source="tK-wB-7DHDkloK3HSNFe-157" target="tK-wB-7DHDkloK3HSNFe-158">
          <mxGeometry width="50" height="50" relative="1" as="geometry">
            <mxPoint x="1000" y="660" as="sourcePoint" />
            <mxPoint x="1050" y="610" as="targetPoint" />
          </mxGeometry>
        </mxCell>
        <mxCell id="tK-wB-7DHDkloK3HSNFe-165" value="" style="endArrow=classic;html=1;rounded=0;exitX=0.5;exitY=1;exitDx=0;exitDy=0;entryX=0.5;entryY=0;entryDx=0;entryDy=0;" edge="1" parent="1" source="tK-wB-7DHDkloK3HSNFe-158" target="tK-wB-7DHDkloK3HSNFe-159">
          <mxGeometry width="50" height="50" relative="1" as="geometry">
            <mxPoint x="1000" y="660" as="sourcePoint" />
            <mxPoint x="1050" y="610" as="targetPoint" />
          </mxGeometry>
        </mxCell>
        <mxCell id="tK-wB-7DHDkloK3HSNFe-166" value="" style="endArrow=classic;html=1;rounded=0;exitX=0.5;exitY=1;exitDx=0;exitDy=0;" edge="1" parent="1" source="tK-wB-7DHDkloK3HSNFe-159" target="tK-wB-7DHDkloK3HSNFe-160">
          <mxGeometry width="50" height="50" relative="1" as="geometry">
            <mxPoint x="1000" y="660" as="sourcePoint" />
            <mxPoint x="1050" y="610" as="targetPoint" />
          </mxGeometry>
        </mxCell>
        <mxCell id="tK-wB-7DHDkloK3HSNFe-167" value="" style="endArrow=classic;html=1;rounded=0;exitX=0.5;exitY=1;exitDx=0;exitDy=0;entryX=0.5;entryY=0;entryDx=0;entryDy=0;" edge="1" parent="1" source="tK-wB-7DHDkloK3HSNFe-160" target="tK-wB-7DHDkloK3HSNFe-161">
          <mxGeometry width="50" height="50" relative="1" as="geometry">
            <mxPoint x="1000" y="660" as="sourcePoint" />
            <mxPoint x="1050" y="610" as="targetPoint" />
          </mxGeometry>
        </mxCell>
        <mxCell id="tK-wB-7DHDkloK3HSNFe-168" value="" style="endArrow=classic;html=1;rounded=0;exitX=0.5;exitY=1;exitDx=0;exitDy=0;entryX=0.5;entryY=0;entryDx=0;entryDy=0;" edge="1" parent="1" source="tK-wB-7DHDkloK3HSNFe-161" target="tK-wB-7DHDkloK3HSNFe-162">
          <mxGeometry width="50" height="50" relative="1" as="geometry">
            <mxPoint x="1000" y="660" as="sourcePoint" />
            <mxPoint x="1050" y="610" as="targetPoint" />
          </mxGeometry>
        </mxCell>
        <mxCell id="tK-wB-7DHDkloK3HSNFe-169" value="Datainsamlare" style="shape=umlActor;verticalLabelPosition=bottom;verticalAlign=top;html=1;outlineConnect=0;" vertex="1" parent="1">
          <mxGeometry x="710" y="20" width="30" height="60" as="geometry" />
        </mxCell>
        <mxCell id="tK-wB-7DHDkloK3HSNFe-171" value="" style="shape=flexArrow;endArrow=classic;html=1;rounded=0;endWidth=108;endSize=11.33;width=58;fillColor=#fa6800;strokeColor=#C73500;" edge="1" parent="1">
          <mxGeometry width="50" height="50" relative="1" as="geometry">
            <mxPoint x="540" y="450" as="sourcePoint" />
            <mxPoint x="630" y="450" as="targetPoint" />
          </mxGeometry>
        </mxCell>
      </root>
    </mxGraphModel>
  </diagram>
</mxfile>
